<svg id="Calque_1" data-name="Calque 1" xmlns="http://www.w3.org/2000/svg" viewBox="0 0 574.75 666"><title>Play</title><polygon points="574.75 333 191.9 333 287.73 166.71 574.75 333" style="fill:#6ec3bc"/><polygon points="287.73 499.29 191.9 333 574.75 333 287.73 499.29" style="fill:#55726f"/><polygon points="0 333 0 0 287.37 166.5 143.86 249.65 0 333" style="fill:#6ec3bc"/><polygon points="0 666 0 333 143.86 416.35 287.37 499.5 0 666" style="fill:#55726f"/><polygon points="191.9 333 0 333 143.86 249.65 287.37 166.5 287.73 166.71 191.9 333" style="fill:#55726f"/><polygon points="287.37 499.5 143.86 416.35 0 333 191.9 333 287.73 499.29 287.37 499.5" style="fill:#6ec3bc"/></svg>